<?xml version="1.0" encoding="UTF-8" standalone="no"?>
<!-- Created with Inkscape (http://www.inkscape.org/) -->

<svg
   version="1.1"
   id="svg1"
   width="512"
   height="512"
   viewBox="0 0 512 512"
   sodipodi:docname="favicon.svg"
   inkscape:version="1.4.4 (dcaf3e7d9e, 2026-05-05)"
   xmlns:inkscape="http://www.inkscape.org/namespaces/inkscape"
   xmlns:sodipodi="http://sodipodi.sourceforge.net/DTD/sodipodi-0.dtd"
   xmlns="http://www.w3.org/2000/svg"
   xmlns:svg="http://www.w3.org/2000/svg">
  <defs
     id="defs1" />
  <sodipodi:namedview
     id="namedview1"
     pagecolor="#ffffff"
     bordercolor="#000000"
     borderopacity="0.25"
     inkscape:showpageshadow="2"
     inkscape:pageopacity="0.0"
     inkscape:pagecheckerboard="0"
     inkscape:deskcolor="#d1d1d1"
     inkscape:zoom="1.5683594"
     inkscape:cx="255.6812"
     inkscape:cy="256"
     inkscape:window-width="1853"
     inkscape:window-height="1011"
     inkscape:window-x="0"
     inkscape:window-y="0"
     inkscape:window-maximized="1"
     inkscape:current-layer="g1" />
  <g
     inkscape:groupmode="layer"
     inkscape:label="Image"
     id="g1">
    <g
       id="g2">
      <path
         style="fill:#0000ff"
         d="m 399.25,338.28375 c 1.5125,-0.22913 3.9875,-0.22913 5.5,0 1.5125,0.22912 0.275,0.41659 -2.75,0.41659 -3.025,0 -4.2625,-0.18747 -2.75,-0.41659 z M 445.21622,248.47792 445,215.45584 l -8.30219,-8.25906 c -4.56621,-4.54248 -8.61621,-8.02005 -9,-7.72792 -0.3838,0.29213 -0.52442,0.28275 -0.3125,-0.0208 0.21192,-0.30358 -3.92844,-5.06157 -9.20081,-10.5733 -8.5379,-8.92552 -9.66999,-9.79462 -10.35309,-7.94803 -0.42183,1.14032 -1.34396,2.03778 -2.04919,1.99436 -1.00373,-0.0618 -1.01073,-0.18849 -0.0322,-0.58333 0.93285,-0.37641 1.25,-4.92339 1.25,-17.92105 V 147 h -14.94774 -14.94774 l -0.36728,5.25 -0.36728,5.25 -0.18498,-5.54179 C 376.0132,146.81199 375.67879,146.10117 371.5,142 L 367,137.58358 V 123.6848 c 0,-11.90362 -0.21394,-13.81668 -1.49035,-13.32688 -0.81969,0.31455 -5.43219,1.77216 -10.25,3.23915 -4.81781,1.46699 -9.39597,2.90925 -10.17369,3.20503 -0.80154,0.30483 -1.14181,0.0973 -0.78556,-0.47914 0.34567,-0.5593 -0.70551,-2.29496 -2.33596,-3.85703 C 340.334,110.90387 339,109.33864 339,108.98764 c 0,-0.35099 10.85123,-3.96112 24.11384,-8.0225 16.5401,-5.06504 23.52844,-7.61226 22.25,-8.110036 -1.02511,-0.399139 -17.55751,-2.422163 -36.73867,-4.495608 l -34.87483,-3.7699 -4.82805,-5.044798 c -3.69204,-3.857783 -4.42738,-5.108381 -3.12518,-5.315026 0.93659,-0.148625 25.21886,2.385486 53.9606,5.631358 l 52.25772,5.901585 13.24228,-4.013273 c 13.72284,-4.158911 17.01945,-5.872281 15.06296,-7.828777 C 438.49026,72.090261 269.89765,18.988151 264,18.384426 c -3.025,-0.309661 -7.50421,-0.100063 -9.95381,0.465773 -4.35194,1.005262 -4.54917,0.940892 -8.62327,-2.814486 l -4.16947,-3.843278 5.62328,-1.552493 C 256.26902,8.0468854 261.9636,7.7225521 269.5,9.351441 280.50307,11.729603 443.20868,63.826445 446,65.86512 c 3.35669,2.451599 5.17414,8.040909 3.97461,12.223406 -1.64436,5.733542 -4.25418,7.375055 -19.01336,11.958931 L 417,94.383511 v 7.308249 c 0,7.0991 0.0705,7.30824 2.46249,7.30824 8.33102,0 19.26077,7.74187 23.72499,16.80513 L 445.5,130.5 l 0.28711,63 c 0.15792,34.65 0.14272,68.625 -0.0338,75.5 -0.17649,6.875 -0.4182,-2.35993 -0.53712,-20.52208 z M 435.04841,131.8854 c -0.57616,-1.98803 -1.99029,-4.81309 -3.14251,-6.2779 C 429.37639,122.39176 423.02866,119 419.53984,119 H 417 v 31.26528 31.26528 l 5.10021,1.81144 c 3.0378,1.07893 6.77829,3.49901 9.25,5.98472 L 435.5,193.5 l 0.29799,-29 c 0.1866,-18.16078 -0.0936,-30.35102 -0.74958,-32.6146 z M 407.78753,128.25 408.07505,119 H 391.91253 375.75 l 0.625,3.125 c 0.34375,1.71875 0.625,6.00547 0.625,9.52605 v 6.40104 L 392.25,137.77605 407.5,137.5 Z M 408,103.5 c 0,-6.302354 0.0608,-6.27664 -8.5,-3.59407 -3.3,1.03407 -9.9375,3.0805 -14.75,4.54761 -4.8125,1.46712 -8.75,3.09026 -8.75,3.60697 0,0.54684 6.68707,0.93949 16,0.93949 h 16 z m -1.07909,153.25091 c -0.29765,-2.14974 -0.14485,-3.37485 0.35817,-2.87183 0.4825,0.4825 0.71609,2.1696 0.5191,3.7491 -0.32972,2.64362 -0.39943,2.5739 -0.87727,-0.87727 z M 430.19495,209.5 c 0.0204,-1.65 0.2445,-2.20394 0.49804,-1.23097 0.25354,0.97297 0.23687,2.32297 -0.0371,3 -0.27393,0.67703 -0.48137,-0.11903 -0.46099,-1.76903 z M 393,189.5 c 1.29175,-1.375 2.57363,-2.5 2.84863,-2.5 0.275,0 -0.55688,1.125 -1.84863,2.5 -1.29175,1.375 -2.57363,2.5 -2.84863,2.5 -0.275,0 0.55688,-1.125 1.84863,-2.5 z m 22.8125,1.81689 c 0.72187,-0.28887 1.58438,-0.25335 1.91667,0.0789 0.33229,0.33229 -0.25834,0.56864 -1.3125,0.52522 -1.16495,-0.048 -1.4019,-0.28494 -0.60417,-0.60416 z M 361.5,168 c 0.99549,-1.1 2.03498,-2 2.30998,-2 0.275,0 -0.31449,0.9 -1.30998,2 -0.99549,1.1 -2.03498,2 -2.30998,2 -0.275,0 0.31449,-0.9 1.30998,-2 z m -97.75,-28.66228 c 0.6875,-0.27741 1.8125,-0.27741 2.5,0 0.6875,0.27741 0.125,0.50439 -1.25,0.50439 -1.375,0 -1.9375,-0.22698 -1.25,-0.50439 z m 41.51903,-56.030711 c 0.97297,-0.253543 2.32297,-0.236869 3,0.03705 0.67703,0.273923 -0.11903,0.481368 -1.76903,0.460988 -1.65,-0.02038 -2.20394,-0.244498 -1.23097,-0.498042 z m -9.45653,-0.990123 c 0.72187,-0.288871 1.58438,-0.253344 1.91667,0.07895 0.33229,0.332292 -0.25834,0.568641 -1.3125,0.52522 -1.16495,-0.04798 -1.4019,-0.284941 -0.60417,-0.604167 z m -8,-1 c 0.72187,-0.288871 1.58438,-0.253344 1.91667,0.07895 0.33229,0.332292 -0.25834,0.568641 -1.3125,0.52522 -1.16495,-0.04798 -1.4019,-0.284941 -0.60417,-0.604167 z m -10,-1 c 0.72187,-0.288871 1.58438,-0.253344 1.91667,0.07895 0.33229,0.332292 -0.25834,0.568641 -1.3125,0.52522 -1.16495,-0.04798 -1.4019,-0.284941 -0.60417,-0.604167 z M 299.75,73.337719 c 0.6875,-0.277412 1.8125,-0.277412 2.5,0 0.6875,0.277413 0.125,0.504386 -1.25,0.504386 -1.375,0 -1.9375,-0.226973 -1.25,-0.504386 z m -9,-1 c 0.6875,-0.277412 1.8125,-0.277412 2.5,0 0.6875,0.277413 0.125,0.504386 -1.25,0.504386 -1.375,0 -1.9375,-0.226973 -1.25,-0.504386 z m -7.9375,-1.020833 c 0.72187,-0.288871 1.58438,-0.253344 1.91667,0.07895 0.33229,0.332292 -0.25834,0.568641 -1.3125,0.52522 -1.16495,-0.04798 -1.4019,-0.284941 -0.60417,-0.604167 z m -9,-1 c 0.72187,-0.288871 1.58438,-0.253344 1.91667,0.07895 0.33229,0.332292 -0.25834,0.568641 -1.3125,0.52522 -1.16495,-0.04798 -1.4019,-0.284941 -0.60417,-0.604167 z m -9,-1 c 0.72187,-0.288871 1.58438,-0.253344 1.91667,0.07895 0.33229,0.332292 -0.25834,0.568641 -1.3125,0.52522 -1.16495,-0.04798 -1.4019,-0.284941 -0.60417,-0.604167 z"
         id="path8" />
      <path
         style="fill:#0000ff"
         d="m 51.8125,503.31689 c 0.721875,-0.28887 1.584375,-0.25335 1.916667,0.0789 0.332291,0.33229 -0.258334,0.56864 -1.3125,0.52522 -1.164943,-0.048 -1.4019,-0.28494 -0.604167,-0.60416 z m 316.00961,-0.0665 c 17.22716,-0.15351 45.12716,-0.15341 62,2.3e-4 16.87284,0.15363 2.77789,0.27924 -31.32211,0.27912 -34.1,-1.3e-4 -47.90505,-0.12583 -30.67789,-0.27935 z M 25.404988,490.75 23.5,488.5 l 2.25,1.90499 C 27.864445,492.19521 28.455241,493 27.654988,493 c -0.189757,0 -1.202257,-1.0125 -2.25,-2.25 z M 476,486.68709 c 0,-0.1721 1.4625,-1.6346 3.25,-3.25 l 3.25,-2.93709 -2.93709,3.25 C 476.82513,486.77946 476,487.45965 476,486.68709 Z M 32.404988,483.75 30.5,481.5 l 2.25,1.90499 C 34.864445,485.19521 35.455241,486 34.654988,486 c -0.189757,0 -1.202257,-1.0125 -2.25,-2.25 z m 349.322712,0.52827 c 1.77523,-0.22091 4.92523,-0.22454 7,-0.008 2.07476,0.21648 0.6223,0.39722 -3.2277,0.40166 -3.85,0.004 -5.54754,-0.17268 -3.7723,-0.39359 z m 32,0 c 1.77523,-0.22091 4.92523,-0.22454 7,-0.008 2.07476,0.21648 0.6223,0.39722 -3.2277,0.40166 -3.85,0.004 -5.54754,-0.17268 -3.7723,-0.39359 z m 32,0 c 1.77523,-0.22091 4.92523,-0.22454 7,-0.008 2.07476,0.21648 0.6223,0.39722 -3.2277,0.40166 -3.85,0.004 -5.54754,-0.17268 -3.7723,-0.39359 z m -50.64875,-4.8616 c 0.048,-1.16495 0.28494,-1.4019 0.60416,-0.60417 0.28887,0.72187 0.25335,1.58438 -0.0789,1.91667 -0.33229,0.33229 -0.56864,-0.25834 -0.52522,-1.3125 z m 32,0 c 0.048,-1.16495 0.28494,-1.4019 0.60416,-0.60417 0.28887,0.72187 0.25335,1.58438 -0.0789,1.91667 -0.33229,0.33229 -0.56864,-0.25834 -0.52522,-1.3125 z M 256,466 23.5,465.49364 256.25,465.24682 C 410.91455,465.08281 489,465.33549 489,466 c 0,0.55 -0.1125,0.88893 -0.25,0.75318 C 488.6125,466.61743 383.875,466.2785 256,466 Z M 13.232003,462 c 0,-1.925 0.205795,-2.7125 0.457323,-1.75 0.251527,0.9625 0.251527,2.5375 0,3.5 -0.251528,0.9625 -0.457323,0.175 -0.457323,-1.75 z M 46.75,455.25119 c 11.1375,-0.16093 29.3625,-0.16093 40.5,0 11.1375,0.16094 2.025,0.29261 -20.25,0.29261 -22.275,0 -31.3875,-0.13167 -20.25,-0.29261 z m 179.5,-26.00061 c 16.3625,-0.15419 43.1375,-0.15419 59.5,0 16.3625,0.15418 2.975,0.28033 -29.75,0.28033 -32.725,0 -46.1125,-0.12615 -29.75,-0.28033 z M 413,377 l -25.5,-0.55184 25.19098,-0.22408 C 428.65257,376.0821 438.1084,376.36638 438.5,377 c 0.33992,0.55 0.47898,0.89916 0.30902,0.77592 C 438.63906,377.65268 427.025,377.30351 413,377 Z m 32.46053,-51 c 0,-25.025 0.12983,-35.2625 0.28851,-22.75 0.15868,12.5125 0.15868,32.9875 0,45.5 -0.15868,12.5125 -0.28851,2.275 -0.28851,-22.75 z m -304.13574,22.25024 c 23.00364,-0.14977 60.35364,-0.14971 83,1.3e-4 22.64637,0.14984 3.82521,0.27237 -41.82479,0.2723 -45.65,-7e-5 -64.17884,-0.12266 -41.17521,-0.27243 z M 104.46073,337.75 c -0.26207,-0.6875 -0.35814,-44 -0.21348,-96.25 l 0.26302,-95 0.24487,95.74667 0.24486,95.74666 146.25,0.2567 146.25,0.25669 -146.28138,0.24664 c -116.28647,0.19607 -146.37909,-0.01 -146.75789,-1.00336 z M 407.45571,299.5 c 2.7e-4,-22 0.13226,-30.85753 0.29331,-19.6834 0.16105,11.17413 0.16083,29.17413 -4.9e-4,40 -0.16132,10.82587 -0.29309,1.6834 -0.29282,-20.3166 z M 66.476665,213 c 0,-44.275 0.122855,-62.3875 0.273012,-40.25 0.150157,22.1375 0.150157,58.3625 0,80.5 -0.150157,22.1375 -0.273012,4.025 -0.273012,-40.25 z M 400.43709,248.75 397.5,245.5 l 3.25,2.93709 c 1.7875,1.6154 3.25,3.0779 3.25,3.25 0,0.77256 -0.82513,0.0924 -3.56291,-2.93709 z M 421,251.68709 c 0,-0.1721 1.4625,-1.6346 3.25,-3.25 l 3.25,-2.93709 -2.93709,3.25 C 421.82513,251.77946 421,252.45965 421,251.68709 Z m 19.25,-5.9306 c -4.09654,-4.17577 -4.25186,-4.56553 -4.30153,-10.79434 l -0.0515,-6.46215 -1.60988,4 c -0.88544,2.2 -1.769,4.19424 -1.96346,4.43165 -0.19446,0.2374 -1.86384,-1.03217 -3.70973,-2.82129 l -3.35618,-3.25293 2.48817,-7.67871 c 3.03002,-9.35093 3.3392,-17.34833 0.85743,-22.17872 -1.41522,-2.75452 0.14471,-1.57638 7.32379,5.53131 l 9.12203,9.03131 -0.27456,17.26303 -0.27455,17.26302 z m -28.4375,-0.4396 c 0.72187,-0.28887 1.58438,-0.25335 1.91667,0.0789 0.33229,0.33229 -0.25834,0.56864 -1.3125,0.52522 -1.16495,-0.048 -1.4019,-0.28494 -0.60417,-0.60416 z M 385.27236,209 c 0,-2.475 0.19502,-3.4875 0.43337,-2.25 0.23836,1.2375 0.23836,3.2625 0,4.5 -0.23835,1.2375 -0.43337,0.225 -0.43337,-2.25 z m 8.95964,0 c 0,-1.925 0.2058,-2.7125 0.45733,-1.75 0.25152,0.9625 0.25152,2.5375 0,3.5 -0.25153,0.9625 -0.45733,0.175 -0.45733,-1.75 z M 251.75,202.29427 c 1.2375,-0.23836 3.2625,-0.23836 4.5,0 1.2375,0.23835 0.225,0.43337 -2.25,0.43337 -2.475,0 -3.4875,-0.19502 -2.25,-0.43337 z m 21.51375,-0.0119 c 1.52006,-0.22986 3.77006,-0.22371 5,0.0136 1.22994,0.23736 -0.0138,0.42542 -2.76375,0.41792 -2.75,-0.008 -3.75631,-0.20172 -2.23625,-0.43157 z M 239.75,201.33772 c 0.6875,-0.27741 1.8125,-0.27741 2.5,0 0.6875,0.27741 0.125,0.50439 -1.25,0.50439 -1.375,0 -1.9375,-0.22698 -1.25,-0.50439 z m 47,0 c 0.6875,-0.27741 1.8125,-0.27741 2.5,0 0.6875,0.27741 0.125,0.50439 -1.25,0.50439 -1.375,0 -1.9375,-0.22698 -1.25,-0.50439 z m -53.9375,-1.02083 c 0.72187,-0.28887 1.58437,-0.25335 1.91667,0.0789 0.33229,0.33229 -0.25834,0.56864 -1.3125,0.52522 -1.16495,-0.048 -1.4019,-0.28494 -0.60417,-0.60416 z m 62,0 c 0.72187,-0.28887 1.58438,-0.25335 1.91667,0.0789 0.33229,0.33229 -0.25834,0.56864 -1.3125,0.52522 -1.16495,-0.048 -1.4019,-0.28494 -0.60417,-0.60416 z m 97.35034,-2.64888 -3.22949,-3.33199 4.90716,-4.59007 c 2.82486,-2.64232 6.70137,-5.12763 9.13542,-5.85688 2.33844,-0.70062 4.52806,-2.07727 4.89904,-3.08011 0.56028,-1.51458 1.90254,-0.56014 8.1479,5.7937 5.81915,5.92023 6.76749,7.25115 4.27679,6.00217 -6.84882,-3.43438 -15.58227,-1.46379 -21.03473,4.74621 -1.76211,2.00693 -3.3543,3.64896 -3.53821,3.64896 -0.18391,0 -1.78766,-1.49939 -3.56388,-3.33199 z m -171.35034,0.64888 c 0.72187,-0.28887 1.58437,-0.25335 1.91667,0.0789 0.33229,0.33229 -0.25834,0.56864 -1.3125,0.52522 -1.16495,-0.048 -1.4019,-0.28494 -0.60417,-0.60416 z m 42.4375,-5.00622 c 0.9625,-0.25152 2.5375,-0.25152 3.5,0 0.9625,0.25153 0.175,0.45733 -1.75,0.45733 -1.925,0 -2.7125,-0.2058 -1.75,-0.45733 z m -17.98097,-1.00366 c 0.97297,-0.25354 2.32297,-0.23687 3,0.0371 0.67703,0.27393 -0.11903,0.48137 -1.76903,0.46099 -1.65,-0.0204 -2.20394,-0.2445 -1.23097,-0.49804 z m 36.48097,0.0307 c 0.6875,-0.27741 1.8125,-0.27741 2.5,0 0.6875,0.27741 0.125,0.50439 -1.25,0.50439 -1.375,0 -1.9375,-0.22698 -1.25,-0.50439 z m -44.9375,-1.02083 c 0.72187,-0.28887 1.58437,-0.25335 1.91667,0.0789 0.33229,0.33229 -0.25834,0.56864 -1.3125,0.52522 -1.16495,-0.048 -1.4019,-0.28494 -0.60417,-0.60416 z m 55,0 c 0.72187,-0.28887 1.58438,-0.25335 1.91667,0.0789 0.33229,0.33229 -0.25834,0.56864 -1.3125,0.52522 -1.16495,-0.048 -1.4019,-0.28494 -0.60417,-0.60416 z m 6,-1 c 0.72187,-0.28887 1.58438,-0.25335 1.91667,0.0789 0.33229,0.33229 -0.25834,0.56864 -1.3125,0.52522 -1.16495,-0.048 -1.4019,-0.28494 -0.60417,-0.60416 z m -73,-1 c 0.72187,-0.28887 1.58437,-0.25335 1.91667,0.0789 0.33229,0.33229 -0.25834,0.56864 -1.3125,0.52522 -1.16495,-0.048 -1.4019,-0.28494 -0.60417,-0.60416 z m 142.22839,-13.60305 c 1.07889,-1.52456 0.86408,-2.20359 -1.46671,-4.63641 l -2.73072,-2.85026 2.07827,-4.07375 C 366.66146,160.74326 367,158.24744 367,148.83163 V 137.58358 L 371.5,142 c 4.49772,4.41418 4.5,4.42002 4.5,11.53007 0,8.86575 -2.08549,15.15516 -6.67302,20.12442 -1.95256,2.11503 -2.9813,3.04174 -2.28609,2.05935 z m -47.96194,-5.29717 c 0.048,-1.16495 0.28494,-1.4019 0.60416,-0.60417 0.28887,0.72187 0.25335,1.58437 -0.0789,1.91667 -0.33229,0.33229 -0.56864,-0.25834 -0.52522,-1.3125 z M 162.87244,167.25 c -1.24387,-1.58606 -1.2085,-1.62143 0.37756,-0.37756 1.66575,1.30637 2.19548,2.12756 1.37244,2.12756 -0.20765,0 -0.99515,-0.7875 -1.75,-1.75 z m 191.09341,-4.61254 c 1.33335,-1.69419 1.17374,-2.12355 -1.76578,-4.75 C 349.11664,155.13241 349.07464,155 351.28422,155 c 4.5297,0 6.48761,5.36555 2.96578,8.12756 -1.60934,1.26213 -1.63218,1.22274 -0.28415,-0.4901 z m -204.8869,-3.22079 c 0.048,-1.16495 0.28494,-1.4019 0.60416,-0.60417 0.28887,0.72187 0.25335,1.58437 -0.0789,1.91667 -0.3323,0.33229 -0.56864,-0.25834 -0.52522,-1.3125 z M 158.41858,128 c 0,-10.725 0.14711,-15.1125 0.32692,-9.75 0.17981,5.3625 0.17981,14.1375 0,19.5 -0.17981,5.3625 -0.32692,0.975 -0.32692,-9.75 z m 97.39392,10.31689 c 0.72187,-0.28887 1.58438,-0.25335 1.91667,0.0789 0.33229,0.33229 -0.25834,0.56864 -1.3125,0.52522 -1.16495,-0.048 -1.4019,-0.28494 -0.60417,-0.60416 z M 111.25,137.25279 c 7.0125,-0.1719 18.4875,-0.1719 25.5,0 7.0125,0.1719 1.275,0.31255 -12.75,0.31255 -14.025,0 -19.7625,-0.14065 -12.75,-0.31255 z m 203.72352,-16.36004 -3.52648,-3.65478 13.52648,-4.0614 13.52648,-4.06141 3.25195,3.14047 c 1.78857,1.72726 2.91357,3.4554 2.5,3.8403 -0.60759,0.56548 -21.00156,7.33543 -24.75195,8.21663 -0.55,0.12923 -2.58691,-1.40969 -4.52648,-3.41981 z M 74,117.5 c 1.291745,-1.375 2.573628,-2.5 2.848628,-2.5 0.275,0 -0.556883,1.125 -1.848628,2.5 -1.291745,1.375 -2.573628,2.5 -2.848628,2.5 -0.275,0 0.556883,-1.125 1.848628,-2.5 z m 32.75,0.75228 c 7.8375,-0.16896 20.6625,-0.16896 28.5,0 7.8375,0.16896 1.425,0.3072 -14.25,0.3072 -15.675,0 -22.0875,-0.13824 -14.25,-0.3072 z M 308.5,83.51855 c -0.55,-0.177955 -9.27642,-1.133622 -19.39205,-2.123704 -10.11562,-0.990082 -17.83525,-1.985744 -17.15474,-2.212584 0.74891,-0.249634 -0.4614,-2.143297 -3.06616,-4.797348 -5.22124,-5.320054 -6.22159,-5.186921 17.61295,-2.344031 l 17,2.027693 4.9881,4.965712 c 3.88383,3.86641 4.54797,4.948235 3,4.886765 -1.09346,-0.04342 -2.4381,-0.224548 -2.9881,-0.402503 z m -45.6875,-5.201664 c 0.72187,-0.288871 1.58438,-0.253344 1.91667,0.07895 0.33229,0.332292 -0.25834,0.568641 -1.3125,0.52522 -1.16495,-0.04798 -1.4019,-0.284941 -0.60417,-0.604167 z m -43.84526,-53.433559 -3.53275,-3.657762 13.34907,-4.279794 13.34908,-4.279794 3.46813,3.468129 3.46813,3.468129 -13.28445,4.469426 L 222.5,28.541088 Z"
         id="path7" />
      <path
         style="fill:#0000ff"
         d="m 283.81497,503.2512 c 10.07323,-0.16325 26.27323,-0.16299 36,5.9e-4 9.72676,0.16357 1.48503,0.29714 -18.31497,0.29682 -19.8,-3.3e-4 -27.75827,-0.13416 -17.68503,-0.29741 z m 191.23711,-74.69894 c -5.7267,-5.74626 -10.85069,-10.17673 -11.38664,-9.84549 -0.53595,0.33124 -0.67046,0.11038 -0.29892,-0.4908 0.37155,-0.60118 0.0634,-1.45821 -0.68473,-1.90451 -0.74815,-0.4463 -6.62054,-9.69896 -13.04974,-20.56146 L 437.94259,376 h -7.76835 c -7.74195,0 -7.78158,-0.0136 -11.66379,-3.9893 L 414.615,368.0214 372.5575,367.74955 330.5,367.47771 383.25,367.23885 436,367 v -62.70821 -62.70821 l 4.5,4.41642 4.5,4.41642 v 59.85929 59.85929 l 19.15765,32.1825 c 10.53671,17.70037 19.81346,33.195 20.61501,34.4325 0.80155,1.2375 1.28507,2.25 1.07448,2.25 -0.21058,0 -5.06836,-4.70148 -10.79506,-10.44774 z M 312.3199,376.25062 c 14.20094,-0.15657 37.15094,-0.15643 51,3.1e-4 13.84905,0.15675 2.2301,0.28484 -25.8199,0.28467 -28.05,-1.7e-4 -39.38105,-0.12842 -25.1801,-0.28498 z M 390,343.5 385.58358,339 H 396.79179 408 l -0.0126,-42.25 -0.0126,-42.25 -5.49034,-4.81517 c -12.21909,-10.71645 -20.09467,-37.62144 -14.84963,-50.73011 l 1.6348,-4.08576 3.25889,3.15864 c 3.00848,2.91594 3.18398,3.42991 2.28407,6.68912 -3.17442,11.4968 9.62927,41.28328 17.74558,41.28328 2.25077,0 7.46321,-5.1082 10.32436,-10.11788 l 2.76489,-4.84115 3.1627,3.26308 3.16269,3.26307 -3.40954,5.06289 C 425.17936,247.65476 419.69497,253 417.92327,253 417.37231,253 417,271.52067 417,298.92857 c 0,40.41991 -0.18848,46.11705 -1.57143,47.5 C 414.21555,347.64159 411.64014,348 404.13678,348 h -9.72036 z M 66.430065,316 c 0,-12.925 0.142517,-18.2125 0.316703,-11.75 0.174186,6.4625 0.174186,17.0375 0,23.5 -0.174186,6.4625 -0.316703,1.175 -0.316703,-11.75 z M 253.41663,202.3211 c -4.52288,-0.36841 -5.61356,-0.95234 -9.8918,-5.29589 l -4.80843,-4.88184 9.8918,0.47671 c 5.44049,0.26218 11.0168,0.64506 12.3918,0.85083 5.35444,0.80129 32.11497,-1.65646 43.84736,-4.02706 19.5788,-3.956 50.66909,-14.98131 56.09654,-19.89308 1.54352,-1.39687 1.9522,-1.26866 4.52881,1.42075 2.49541,2.60464 2.66542,3.15926 1.42974,4.66409 -3.69371,4.49825 -34.93605,16.88362 -53.5974,21.24757 -17.48751,4.08945 -45.36604,6.62084 -59.88842,5.43792 z M 321.2,173.8 c -1.56645,-1.56645 -1.53804,-5.28681 0.05,-6.54723 0.6875,-0.54567 3.05,-1.55474 5.25,-2.24237 2.2,-0.68764 8.42039,-3.06566 13.82309,-5.2845 l 9.8231,-4.03426 2.55019,2.55019 c 1.52124,1.52125 2.24581,3.04269 1.7958,3.77082 C 353.17454,164.14464 327.38735,175 323.6404,175 322.95818,175 321.86,174.46 321.2,173.8 Z M 158.30987,152.5 c 0.006,-3.3 0.1923,-4.52944 0.41486,-2.73209 0.22256,1.79735 0.21797,4.49735 -0.0102,6 -0.22818,1.50265 -0.41027,0.0321 -0.40466,-3.26791 z m 94.7133,-15.04562 c -3.01226,-0.84122 -24.99298,-7.58759 -48.84605,-14.99193 C 180.32405,115.0581 160.21362,109 159.48728,109 c -0.72634,0 -1.47297,0.45706 -1.65918,1.01569 -0.18621,0.55863 -4.38582,-3.05041 -9.33248,-8.02009 l -8.99391,-9.035777 4.99914,1.496176 c 2.74953,0.822896 28.84915,8.975821 57.99915,18.117611 43.02906,13.49444 54.41098,16.71178 60.5,17.10165 7.00946,0.44879 8.79988,0.0827 27.37417,-5.59753 C 301.30496,120.73498 310.78327,118 311.43708,118 c 1.31292,0 7.17137,5.74791 6.49002,6.36756 -0.23491,0.21363 -10.1021,3.43931 -21.9271,7.16818 -24.13327,7.61013 -32.69689,8.78948 -42.97683,5.91864 z M 149.3605,128 c 0,-5.225 0.16854,-7.3625 0.37454,-4.75 0.206,2.6125 0.206,6.8875 0,9.5 -0.206,2.6125 -0.37454,0.475 -0.37454,-4.75 z m -0.20261,-21 c 0,-1.375 0.22698,-1.9375 0.50439,-1.25 0.27741,0.6875 0.27741,1.8125 0,2.5 -0.27741,0.6875 -0.50439,0.125 -0.50439,-1.25 z m 113.2092,-29.088439 c -3.34944,-0.970822 -4.6833,-3.595132 -3.18664,-6.269528 1.6221,-2.89853 5.18877,-1.860457 9.81955,2.857967 l 4.41642,4.5 -3.95821,-0.09019 c -2.17702,-0.0496 -5.36802,-0.498817 -7.09112,-0.998251 z M 110.38926,65.277408 c 0.35525,-0.35525 -0.78633,-2.1236 -2.53683,-3.929666 -2.37287,-2.448175 -2.82265,-3.418173 -1.76759,-3.811997 C 112.63382,55.09119 214.39702,22 215.36563,22 c 1.35303,0 7.27296,5.730894 6.56147,6.351949 -0.80066,0.698891 -112.18637,37.573985 -111.53784,36.925459 z"
         id="path6" />
      <path
         style="fill:#0000ff"
         d="m 106.75,503.25019 c 29.2875,-0.14725 77.2125,-0.14725 106.5,0 29.2875,0.14724 5.325,0.26771 -53.25,0.26771 -58.575,0 -82.5375,-0.12047 -53.25,-0.26771 z M 391.04179,498.55188 386.58358,494 h 37.6707 c 35.55085,0 37.97959,-0.11557 43.15984,-2.05375 9.81617,-3.6727 18.71936,-13.92585 21.01051,-24.19625 L 489.0381,465 H 423.22726 357.41642 L 353,460.5 348.58358,456 h 68.3152 c 60.13833,0 68.2467,-0.17851 67.7429,-1.49138 -0.31476,-0.82026 -5.56716,-9.93276 -11.67199,-20.25 L 461.86999,415.5 l 12.09566,12 c 9.67526,9.59874 13.29017,14.01483 18.06501,22.06886 6.239,10.52371 6.71396,12.48919 4.90945,20.31648 -2.85702,12.39265 -11.77121,23.49556 -23.44011,29.19541 l -7,3.41925 -35.5,0.30188 -35.5,0.30189 z M 377.2,482.8 c -1.83712,-1.83712 -1.42786,-5.60769 0.73426,-6.76482 C 378.9981,475.46583 382.40268,475 385.5,475 c 3.09732,0 6.5019,0.46583 7.56574,1.03518 2.16212,1.15713 2.57138,4.9277 0.73426,6.76482 -1.5927,1.5927 -15.0073,1.5927 -16.6,0 z m 32,0 c -1.83712,-1.83712 -1.42786,-5.60769 0.73426,-6.76482 C 410.9981,475.46583 414.40268,475 417.5,475 c 3.09732,0 6.5019,0.46583 7.56574,1.03518 2.16212,1.15713 2.57138,4.9277 0.73426,6.76482 -1.5927,1.5927 -15.0073,1.5927 -16.6,0 z m 32,0 c -1.83712,-1.83712 -1.42786,-5.60769 0.73426,-6.76482 C 442.9981,475.46583 446.40268,475 449.5,475 c 3.09732,0 6.5019,0.46583 7.56574,1.03518 2.16212,1.15713 2.57138,4.9277 0.73426,6.76482 -1.5927,1.5927 -15.0073,1.5927 -16.6,0 z M 179.79836,376.00815 268.09672,375.5 l -3.83143,-3.74113 -3.83144,-3.74113 -52.96693,-0.34964 c -29.1318,-0.1923 5.52015,-0.20261 77.00434,-0.0229 l 129.97125,0.32673 3.84855,3.84855 3.84855,3.84855 -101.31981,0.66495 C 265.09391,376.69969 190.7,376.89033 155.5,376.75761 l -64,-0.2413 z M 66.407091,355 c 0,-9.075 0.151603,-12.7875 0.336897,-8.25 0.185293,4.5375 0.185293,11.9625 0,16.5 -0.185294,4.5375 -0.336897,0.825 -0.336897,-8.25 z M 236,343.5 231.58358,339 h 77 77 l 4.41642,4.5 4.41642,4.5 h -77 -77 z M 99.25,206.75533 95,202.4243 v -30.52102 c 0,-22.85256 0.314065,-30.94387 1.25,-32.20399 1.106608,-1.48992 4.23255,-1.71259 27.25,-1.94113 l 26,-0.25816 v -9.5 -9.5 l -27.83385,-0.26597 c -17.30198,-0.16533 -29.320621,0.13438 -31.763128,0.79208 -4.816904,1.29706 -10.737085,6.3325 -12.551978,10.67615 C 76.337409,132.12823 76,139.23927 76,158.17609 v 25.24033 l -4.557118,-4.45821 -4.557117,-4.45821 0.307117,-23 c 0.305202,-22.85648 0.323721,-23.02808 2.967904,-27.5 3.53427,-5.97726 7.285929,-9.4075 13.339214,-12.19639 4.820075,-2.22071 6.106537,-2.31495 35.75,-2.61874 28.49466,-0.29202 30.75,-0.44344 30.75,-2.06449 0,-1.42525 -5.97513,-3.58137 -32.25,-11.637384 C 89.466068,86.81099 85.100319,85.201749 82.25,82.397486 79.651698,79.841168 79,78.393243 79,75.176725 c 0,-6.581935 3.22998,-9.40684 15.424951,-13.49049 l 10.384979,-3.47755 3.26019,3.363665 c 2.42506,2.502026 2.89769,3.499665 1.84504,3.89458 C 109.13682,65.758933 104,67.501218 98.5,69.338675 c -8.72922,2.916283 -10,3.627872 -10,5.599624 0,2.077616 2.045373,2.898152 25.5,10.229758 l 25.5,7.970963 9.25,9.16074 9.25,9.16074 0.0439,23.01975 c 0.0589,30.90823 0.4744,32.00611 14.6425,38.69276 15.28794,7.21516 44.63756,15.94747 61.3852,18.26375 3.76425,0.52062 5.44195,1.51752 9.5,5.64498 l 4.92841,5.0127 -4,-0.53785 c -2.2,-0.29581 -7.6,-1.02672 -12,-1.62424 -19.39954,-2.63445 -47.92618,-11.15184 -65.08833,-19.43385 -12.98904,-6.26818 -17.21496,-12.38627 -17.84258,-25.8317 l -0.33454,-7.1668 -22.6034,-0.26874 -22.60339,-0.26874 -0.26388,32.06192 -0.26388,32.06192 z"
         id="path5" />
      <path
         style="fill:#0000e2;fill-opacity:1"
         d="m 279,498.5 -4.41642,-4.5 h 56 56 l 4.41642,4.5 4.41642,4.5 h -56 -56 z m -38,-38 -4.41642,-4.5 h 56 56 l 4.41642,4.5 4.41642,4.5 h -56 -56 z m -26,-26 -4.41642,-4.5 h 52.50821 c 39.50639,0 52.80535,0.29714 53.70821,1.2 1.83712,1.83712 1.42786,5.60769 -0.73426,6.76482 C 314.81052,438.63659 297.50635,439 266.77395,439 H 219.41642 Z M 78.25,376.26496 c 2.6125,-0.206 6.8875,-0.206 9.5,0 2.6125,0.206 0.475,0.37454 -4.75,0.37454 -5.225,0 -7.3625,-0.16854 -4.75,-0.37454 z m 74.26184,-4.25284 -3.89406,-3.98787 -36.05889,-0.31181 C 92.726501,367.54095 117.9,367.58399 168.5,367.80809 l 92,0.40745 3.98529,3.89223 3.9853,3.89223 H 212.43824 156.4059 Z M 124,343.5 119.58358,339 h 56 56 l 4.41642,4.5 4.41642,4.5 h -56 -56 z M 99.25,318.75495 95,314.4243 v -55.94899 -55.94899 l 4.5085,4.5085 4.5085,4.5085 -0.2585,55.77114 -0.2585,55.77114 z m -28,-28 L 67,286.4243 v -55.94899 -55.94899 l 4.5085,4.5085 4.508501,4.5085 L 75.7585,239.31446 75.5,295.0856 Z"
         id="path4" />
      <path
         style="fill:#0000b8;fill-opacity:1"
         d="m 173,498.5 -4.41642,-4.5 h 53 53 l 4.41642,4.5 4.41642,4.5 h -53 -53 z m -38,-38 -4.41642,-4.5 h 53 53 l 4.41642,4.5 4.41642,4.5 h -53 -53 z m 60.75,-22.5801 c -2.00885,-1.17005 -2.31835,-4.95155 -0.55,-6.7199 0.70772,-0.70772 4.10929,-1.2 8.29179,-1.2 7.08414,0 7.09656,0.005 11.50821,4.5 l 4.41642,4.5 -10.95821,-0.0304 C 202.43119,438.95287 196.7125,438.48051 195.75,437.9199 Z M 61.587917,387.09177 58.801651,384.18353 62.900826,377.2836 67,370.38367 V 328.48362 286.58358 L 71.5,291 76,295.41642 V 331.70821 368 h 36.29705 36.29705 l 3.9059,4 3.9059,4 H 115.24761 74.089315 l -4.158623,7 c -2.287243,3.85 -4.473148,7 -4.857567,7 -0.384418,0 -1.952762,-1.30871 -3.485208,-2.90823 z M 96.556704,345.77749 C 95.321694,344.01427 95,340.56151 95,329.06929 V 314.58358 L 99.5,319 104,323.41642 V 331.20821 339 h 7.79179 7.79179 l 4.41642,4.5 4.41642,4.5 h -15.15151 c -14.523515,0 -15.216023,-0.0921 -16.708206,-2.22251 z"
         id="path3" />
      <path
         style="fill:#000080"
         d="M 46.281429,502.03037 C 40.953221,500.76409 32.528235,496.21853 27.878854,492.10158 20.183152,485.28716 14,472.03747 14,462.36101 c 0,-2.41709 5.503861,-12.38982 22.09766,-40.0399 12.153713,-20.25161 22.293137,-37.02303 22.532052,-37.26983 0.238915,-0.24679 1.780172,0.89707 3.425015,2.54191 l 2.990625,2.99062 -18.627924,31.4581 C 36.17207,439.34386 27.563721,454.0625 27.287763,454.75 26.890229,455.74039 37.56485,456 78.684803,456 H 130.58358 L 135,460.5 139.41642,465 H 81.189156 22.961896 l 0.613476,2.75 c 2.291145,10.2704 11.194335,20.52355 21.010509,24.19625 C 49.896092,493.93305 52.006572,494 109.3293,494 h 59.25428 l 4.41642,4.5 4.41642,4.5 -63.95821,-0.10236 c -35.177016,-0.0563 -65.406567,-0.44657 -67.176781,-0.86727 z"
         id="path2" />
    </g>
  </g>
</svg>
